# xmcd
#
# Track frame offsets: 
#        150
#        13353
#        26653
#        40750
#        54572
#        67696
#        82165
#        95996
#        109514
#        124205
#        138474
#        154891
#        169390
#        185087
#        199958
#        212119
#        226687
#        238660
#        249385
#        261902
#        274174
#        289636
#        304550
#        319117
#
# Disc length: 4439 seconds
#
# Revision: 1
# Processed by: cddbd v1.5.2PL0 Copyright (c) Steve Scherf et al.
# Submitted via: ExactAudioCopy v1.1
#
DISCID=64115518
DTITLE=Various Artist - Rarities From The Vaults - CD1: Blues From The Victor
DTITLE=Vault
DYEAR=2011
DGENRE=Blues
TTITLE0=Frank Stokes - South Memphis Blues (mono)
TTITLE1=Frank Stokes - Bunker Hill Blues (mono)
TTITLE2=Furry Lewis - Dry Land Blues (mono)
TTITLE3=Furry Lewis - Cannonball Blues (mono)
TTITLE4=R.T. Hanen - She's Got Jordan River In Her Hips (mono)
TTITLE5=R.T. Hanen - Happy Day Blues (mono)
TTITLE6=Sleepy John Estes - Expressman Blues (mono)
TTITLE7=Sleepy John Estes - Sweet Mama (mono)
TTITLE8=The Shreveport Home Wreckers - Fence Breakin' Blues (mono)
TTITLE9=The Shreveport Home Wreckers - Home Wreckin' Blues (mono)
TTITLE10=Tommy Johnson - Canned Heat Blues (mono)
TTITLE11=Tommy Johnson - Big Fat Mama Blues (mono)
TTITLE12=Ishman Bracey - Leavin' Town (mono)
TTITLE13=Ishman Bracey - The Four Day Blues (mono)
TTITLE14=McCoy and Johnson - I Never Told A Lie (mono)
TTITLE15=McCoy and Johnson - Don't Want No Woman (mono)
TTITLE16=Samuel 'Fat' Westmoreland - Real Estate Mama (mono)
TTITLE17=Samuel 'Fat' Westmoreland - Dreamin' Blues (mono)
TTITLE18=Kaiser Clifton - Cash Money Blues (mono)
TTITLE19=Kaiser Clifton - Fort Worth And Denver Blues (mono)
TTITLE20=Charlie Kyle - Walking Blues (mono)
TTITLE21=Charlie Kyle - No Baby (mono)
TTITLE22=Ruby Glaze and Hot Shot Willie - Lonesome Day Blues (mono)
TTITLE23=Ruby Glaze and Hot Shot Willie - Searching The Desert For The B
TTITLE23=lues (mono)
EXTD=
EXTT0=
EXTT1=
EXTT2=
EXTT3=
EXTT4=
EXTT5=
EXTT6=
EXTT7=
EXTT8=
EXTT9=
EXTT10=
EXTT11=
EXTT12=
EXTT13=
EXTT14=
EXTT15=
EXTT16=
EXTT17=
EXTT18=
EXTT19=
EXTT20=
EXTT21=
EXTT22=
EXTT23=
PLAYORDER=
